<?xml version="1.0" encoding="utf-8"?>
<!-- Generator: Adobe Illustrator 15.1.0, SVG Export Plug-In . SVG Version: 6.00 Build 0)  -->
<!DOCTYPE svg PUBLIC "-//W3C//DTD SVG 1.1//EN" "http://www.w3.org/Graphics/SVG/1.1/DTD/svg11.dtd">
<svg version="1.1" id="Ebene_1" xmlns="http://www.w3.org/2000/svg" xmlns:xlink="http://www.w3.org/1999/xlink" x="0px" y="0px"
	 width="250px" height="250px" viewBox="0 0 250 250" enable-background="new 0 0 250 250" xml:space="preserve">
<rect fill="#FFE700" width="250" height="250"/>
<g>
	<polygon fill="#05181E" points="187.234,74.373 176.702,106.672 166.207,74.489 139.424,74.489 128.926,106.672 118.397,74.373 
		118.124,74.373 91.63,74.373 36.196,74.373 36.196,99.81 58.587,99.81 58.587,151.348 84.033,151.348 84.033,99.81 99.926,99.81 
		116.741,151.348 141.119,151.348 152.816,115.482 164.514,151.348 188.891,151.348 213.99,74.373 	"/>
	<g>
		<path fill="#05181E" d="M118.915,171.247v3.983c0,0.121-0.098,0.222-0.224,0.222h-1.523c-0.123,0-0.223-0.103-0.223-0.222v-13.529
			c0-0.128,0.102-0.217,0.223-0.217h1.523c0.126,0,0.224,0.091,0.224,0.217v8.021l3.859-3.869c0.126-0.17,0.318-0.238,0.444-0.238
			h2.164c0.147,0,0.246,0.094,0.246,0.238l-4.675,4.653l4.555,4.698c0,0.145-0.346,0.246-0.494,0.246h-1.796
			c-0.126,0-0.317-0.078-0.444-0.246L118.915,171.247z"/>
		<path fill="#05181E" d="M132.695,167.213c-2.365,0-2.881,1.79-2.881,3.346v4.672c0,0.121-0.096,0.223-0.222,0.223h-1.524
			c-0.121,0-0.217-0.104-0.217-0.223v-9.396c0-0.124,0.098-0.218,0.217-0.218h1.182c0.146,0,0.245,0.069,0.318,0.218l0.123,1.059
			c0.791-1.33,2.264-1.399,3.055-1.399h0.365c0.123,0,0.222,0.098,0.222,0.218v1.278c0,0.126-0.101,0.224-0.222,0.224H132.695
			L132.695,167.213z"/>
		<path fill="#05181E" d="M139.582,175.578c-2.854,0-5.143-1.581-5.143-5.049c0-2.729,1.381-5.038,4.701-5.038
			c2.658,0,4.721,1.647,4.721,4.817v0.885c0,0.127-0.096,0.223-0.221,0.223h-7.205c0,1.92,2.043,2.538,3.125,2.538
			c0.688,0,1.748-0.175,2.479-0.565c0.03-0.027,0.127-0.053,0.175-0.053c0.098,0,0.146,0.025,0.245,0.104l0.542,0.854
			c0.048,0.076,0.073,0.124,0.073,0.174c0,0.051,0,0.124-0.101,0.193C142.089,175.426,140.717,175.578,139.582,175.578z
			 M136.434,169.673h5.463c0-1.794-1.354-2.388-2.707-2.388C137.855,167.287,136.434,167.948,136.434,169.673z"/>
		<path fill="#05181E" d="M149.35,165.491c3.006,0,4.674,1.647,4.674,4.397v5.342c0,0.121-0.102,0.222-0.221,0.222h-1.012
			c-0.145,0-0.243-0.078-0.318-0.222l-0.072-0.959c-0.812,1.307-2.656,1.307-2.879,1.307c-1.03,0-3.81-0.324-3.81-3.299
			c0-2.067,1.698-3.031,3.638-3.031c0.86,0,1.922,0.303,2.709,1.136c0-2.36-1.105-3.097-3.053-3.097
			c-0.298,0-0.961,0.094-1.746,0.273c-0.098,0.023-0.146,0.041-0.199,0.041c-0.097,0-0.146-0.068-0.193-0.174l-0.372-0.883
			c-0.045-0.094-0.069-0.17-0.069-0.268c0-0.104,0.024-0.152,0.102-0.198C147.751,165.516,148.591,165.491,149.35,165.491z
			 M152.059,173.018v-1.002c-0.445-0.742-1.725-1.109-2.507-1.109c-1.479,0-1.872,0.589-1.872,1.498
			c0,1.229,0.645,1.553,2.135,1.553C150.089,173.954,151.271,173.828,152.059,173.018z"/>
		<path fill="#05181E" d="M161.385,173.924c0.069,0,0.17,0.051,0.195,0.131l0.25,1.125c0.023,0.031,0.023,0.074,0.023,0.129
			c0,0.067-0.078,0.146-0.103,0.146c-0.468,0.126-0.813,0.126-1.476,0.126c-2.018,0-3.123-0.917-3.123-4.086v-4.278h-1.969
			c-0.121,0-0.222-0.101-0.222-0.225v-1.278c0-0.124,0.103-0.217,0.222-0.217h1.969v-3.788c0-0.128,0.096-0.218,0.22-0.218h1.526
			c0.119,0,0.215,0.092,0.215,0.218v3.788h2.438c0.124,0,0.218,0.096,0.218,0.217v1.278c0,0.127-0.096,0.225-0.218,0.225h-2.438
			v3.711c0,2.485,0.146,3.027,1.578,3.027C161.059,173.954,161.111,173.924,161.385,173.924z"/>
		<path fill="#05181E" d="M165.491,161.977c0.716,0,1.308,0.586,1.308,1.277c0,0.688-0.592,1.252-1.308,1.252
			c-0.658,0-1.259-0.564-1.259-1.252C164.232,162.562,164.833,161.977,165.491,161.977z M164.507,175.23
			c0,0.121,0.104,0.222,0.224,0.222h1.522c0.126,0,0.222-0.103,0.222-0.222v-9.397c0-0.124-0.098-0.218-0.222-0.218h-1.522
			c-0.123,0-0.224,0.094-0.224,0.218V175.23z"/>
		<path fill="#05181E" d="M168.348,170.48c0-2.729,2.312-4.989,5.088-4.989c2.785,0,5.097,2.262,5.097,4.989
			c0,2.802-2.31,5.1-5.097,5.1C170.66,175.578,168.348,173.282,168.348,170.48z M176.562,170.51c0-1.994-1.43-3.223-3.151-3.223
			c-1.675,0-3.099,1.229-3.099,3.223c0,1.991,1.426,3.444,3.099,3.444C175.135,173.954,176.562,172.501,176.562,170.51z"/>
		<path fill="#05181E" d="M182.439,166.816c0.987-1.181,2.219-1.325,3.15-1.325c3.32,0,4.182,1.888,4.182,4.769v4.971
			c0,0.121-0.098,0.223-0.217,0.223h-1.527c-0.123,0-0.219-0.104-0.219-0.223v-4.989c0-1.63-0.175-2.955-2.608-2.955
			c-1.718,0-2.604,1.403-2.604,3.022v4.922c0,0.121-0.103,0.223-0.221,0.223h-1.525c-0.117,0-0.221-0.104-0.221-0.223v-9.396
			c0-0.124,0.104-0.218,0.221-0.218h1.178c0.15,0,0.248,0.069,0.32,0.218L182.439,166.816z"/>
	</g>
</g>
</svg>
